<?xml version="1.0" encoding="UTF-8" standalone="no"?>
<svg
   xmlns:dc="http://purl.org/dc/elements/1.1/"
   xmlns:cc="http://creativecommons.org/ns#"
   xmlns:rdf="http://www.w3.org/1999/02/22-rdf-syntax-ns#"
   xmlns:svg="http://www.w3.org/2000/svg"
   xmlns="http://www.w3.org/2000/svg"
   xmlns:sodipodi="http://sodipodi.sourceforge.net/DTD/sodipodi-0.dtd"
   xmlns:inkscape="http://www.inkscape.org/namespaces/inkscape"
   width="1500"
   height="1500"
   version="1.1"
   viewBox="0 0 396.87 396.88"
   id="svg170"
   sodipodi:docname="ScienceSteffyWSignBordered.svg"
   inkscape:version="0.92.2 (5c3e80d, 2017-08-06)">
  <metadata
     id="metadata176">
    <rdf:RDF>
      <cc:Work
         rdf:about="">
        <dc:format>image/svg+xml</dc:format>
        <dc:type
           rdf:resource="http://purl.org/dc/dcmitype/StillImage" />
      </cc:Work>
    </rdf:RDF>
  </metadata>
  <defs
     id="defs174" />
  <sodipodi:namedview
     pagecolor="#ffffff"
     bordercolor="#666666"
     borderopacity="1"
     objecttolerance="10"
     gridtolerance="10"
     guidetolerance="10"
     inkscape:pageopacity="0"
     inkscape:pageshadow="2"
     inkscape:window-width="2560"
     inkscape:window-height="1377"
     id="namedview172"
     showgrid="false"
     inkscape:zoom="0.15733333"
     inkscape:cx="750"
     inkscape:cy="750"
     inkscape:window-x="-8"
     inkscape:window-y="32"
     inkscape:window-maximized="1"
     inkscape:current-layer="svg170" />
  <g
     transform="matrix(0.58259082,0,0,0.58259082,-178.0531,565.25564)"
     id="g2162">
    <g
       transform="matrix(1.0258618,0,0,1.0258618,1110.3569,-241.11728)"
       id="g4909"
       style="display:inline">
      <path
         style="opacity:1;vector-effect:none;fill:#a05a2c;fill-opacity:1;stroke:#ffffff;stroke-width:16;stroke-linecap:round;stroke-linejoin:round;stroke-miterlimit:4;stroke-dasharray:none;stroke-dashoffset:0;stroke-opacity:1;paint-order:stroke markers fill"
         d="m -443.91917,-651.66952 c -9.58776,0 -17.30642,11.3086 -17.30642,25.35556 v 33.56901 h -34.6129 c -9.58776,0 -17.30642,7.71868 -17.30642,17.30644 v 59.33643 c 0,9.58775 7.71866,17.30644 17.30642,17.30644 h 34.6129 v 393.03181 h 34.61287 v -393.03181 h 77.4392 6.62078 c 0.79944,0 1.58535,-0.0552 2.3554,-0.15917 12.2742,-0.39017 34.13336,-1.73659 46.07523,-6.37842 21.14663,-8.21961 55.17642,-18.08133 55.05143,-40.95202 -0.12396,-22.6876 -33.9048,-31.8053 -55.05143,-40.02495 -17.21324,-6.69074 -55.05141,-6.53758 -55.05141,-6.53758 v 0.10283 h -77.4392 v -33.56901 c 0,-14.04696 -7.71866,-25.35556 -17.30645,-25.35556 z"
         id="path4897"
         inkscape:connector-curvature="0" />
      <path
         style="opacity:1;vector-effect:none;fill:#b86733;fill-opacity:1;stroke:#8b4513;stroke-width:6;stroke-linecap:round;stroke-linejoin:round;stroke-miterlimit:4;stroke-dasharray:none;stroke-dashoffset:0;stroke-opacity:1;paint-order:stroke markers fill"
         d="m -443.91921,-651.6693 c -9.58777,0 -17.30644,11.30849 -17.30644,25.35545 v 520.55003 h 34.61288 v -520.55003 c 0,-14.04696 -7.71867,-25.35545 -17.30644,-25.35545 z"
         id="rect1841"
         inkscape:connector-curvature="0" />
      <path
         style="opacity:1;vector-effect:none;fill:#b86733;fill-opacity:1;stroke:#8b4412;stroke-width:6;stroke-linecap:round;stroke-linejoin:round;stroke-miterlimit:4;stroke-dasharray:none;stroke-dashoffset:0;stroke-opacity:1;paint-order:stroke markers fill"
         d="m -349.17355,-592.84797 v 0.10281 h -146.66503 c -9.58777,0 -17.30644,7.71868 -17.30644,17.30644 v 59.33653 c 0,9.58775 7.71867,17.30642 17.30644,17.30642 h 146.66503 6.62062 c 0.79943,0 1.58563,-0.0549 2.35568,-0.15883 12.2742,-0.39017 34.13316,-1.73686 46.07504,-6.37869 21.14662,-8.21961 55.17658,-18.08139 55.05159,-40.95208 -0.12395,-22.6876 -33.90497,-31.80543 -55.05159,-40.02508 -17.21325,-6.69074 -55.05134,-6.53752 -55.05134,-6.53752 z"
         id="path1845"
         inkscape:connector-curvature="0"
         sodipodi:nodetypes="ccsssscsccssc" />
      <g
         id="text1856"
         style="font-style:normal;font-variant:normal;font-weight:normal;font-stretch:normal;font-size:44.52335358px;line-height:1.25;font-family:'Berlin Sans FB';-inkscape-font-specification:'Berlin Sans FB';letter-spacing:0px;word-spacing:0px;fill:#ffffff;fill-opacity:1;stroke:#8b4412;stroke-width:4.23333311;stroke-miterlimit:4;stroke-dasharray:none;stroke-opacity:1;paint-order:markers stroke fill"
         aria-label="Data Science">
        <path
           id="path75"
           style="font-style:normal;font-variant:normal;font-weight:normal;font-stretch:normal;font-family:'Contrail One';-inkscape-font-specification:'Contrail One';fill:#ffffff;stroke:#8b4412;stroke-width:4.23333311;stroke-miterlimit:4;stroke-dasharray:none;stroke-opacity:1;paint-order:markers stroke fill"
           d="m -490.05741,-563.97482 q 0.0435,-0.26088 0.15218,-0.36958 0.1087,-0.1087 2.19573,-0.30436 2.08703,-0.19566 5.7176,-0.19566 3.6523,0 5.6089,2.10877 1.95659,2.08704 1.95659,5.73934 0,6.89156 -1.54353,15.87014 -0.82612,4.76105 -2.67401,7.08722 -1.69572,2.13051 -5.30454,2.80445 -1.6305,0.28262 -3.97841,0.36957 l -5.41324,0.19566 q -0.47828,-0.0217 -0.47828,-0.41305 z m 4.97844,4.1958 -2.65227,23.67477 q 3.23925,-0.28261 4.47842,-1.26091 1.26092,-0.9783 1.76094,-3.71753 0.50001,-2.73923 0.97829,-7.47853 0.50002,-4.7393 0.50002,-7.76115 0,-1.78267 -0.8696,-2.65227 -0.86959,-0.8696 -2.36965,-0.8696 -1.47831,0 -1.82615,0.0652 z"
           inkscape:connector-curvature="0" />
        <path
           id="path77"
           style="font-style:normal;font-variant:normal;font-weight:normal;font-stretch:normal;font-family:'Contrail One';-inkscape-font-specification:'Contrail One';fill:#ffffff;stroke:#8b4412;stroke-width:4.23333311;stroke-miterlimit:4;stroke-dasharray:none;stroke-opacity:1;paint-order:markers stroke fill"
           d="m -451.57776,-556.47455 -2.82619,25.06613 q -0.0652,0.56523 -0.56523,0.58697 l -4.39147,0.15218 q -0.45653,-0.0435 -0.45653,-0.41305 l 0.41305,-2.95663 q -1.00003,1.69571 -2.19573,2.60879 -1.17395,0.91307 -2.65227,0.91307 -1.47831,0 -2.52183,-0.50001 -1.04351,-0.52176 -1.71745,-1.34788 -0.6522,-0.84786 -1.06526,-2.02181 -0.7609,-2.08703 -0.7609,-5.69586 0,-3.63057 0.47828,-6.1524 0.50002,-2.52183 0.8696,-3.82622 0.36958,-1.32614 0.9783,-2.71749 0.63045,-1.39136 1.41309,-2.32617 1.78267,-2.13052 4.50016,-2.13052 2.02182,0 3.08707,0.9783 1.06526,0.95656 1.78268,2.84793 l 0.26087,-2.95663 q 0.0435,-0.47828 0.5435,-0.52176 l 4.26103,-0.15218 q 0.56523,0.0435 0.56523,0.56524 z m -13.26135,15.76144 q 0,5.19584 2.78271,5.19584 1.21744,0 1.97834,-1.10873 0.76089,-1.13048 1.30439,-4.50017 0.56524,-3.36968 0.56524,-4.91322 0,-1.54353 -0.0217,-1.95659 -0.0217,-0.41306 -0.087,-1.087 -0.0652,-0.69567 -0.23914,-1.15221 -0.17392,-0.47828 -0.45654,-0.95656 -0.56524,-0.93482 -1.82615,-0.93482 -1.26092,0 -2.00007,1.13048 -0.73916,1.10874 -1.15222,2.97837 -0.84786,4.00014 -0.84786,7.30461 z"
           inkscape:connector-curvature="0" />
        <path
           id="path79"
           style="font-style:normal;font-variant:normal;font-weight:normal;font-stretch:normal;font-family:'Contrail One';-inkscape-font-specification:'Contrail One';fill:#ffffff;stroke:#8b4412;stroke-width:4.23333311;stroke-miterlimit:4;stroke-dasharray:none;stroke-opacity:1;paint-order:markers stroke fill"
           d="m -444.4688,-556.95283 q 0.50002,-4.78278 0.65219,-4.93496 0.15218,-0.17392 0.45654,-0.19566 l 4.15233,-0.15218 q 0.58698,0.0435 0.58698,0.5435 -0.41306,2.41313 -0.69568,4.6306 l 5.0654,-0.17392 q 0.52176,0.0217 0.52176,0.56524 l -0.60872,3.45665 q -0.087,0.52176 -0.5435,0.5435 l -4.97844,0.19566 q -1.47831,13.30483 -1.47831,14.67444 0,2.54357 2.17399,2.54357 1.10873,0 2.15225,-0.34784 1.04352,-0.34784 1.30439,-0.34784 0.45654,0 0.45654,0.56524 l -0.45654,3.80449 q -0.0435,0.3261 -0.17391,0.47828 -0.1087,0.15218 -1.06526,0.36957 -0.93482,0.2174 -3.21751,0.2174 -3.34795,0 -4.9567,-1.54353 -1.60875,-1.56527 -1.60875,-4.65234 0,-3.08707 1.71745,-15.69622 l -2.13051,0.087 q -0.5435,-0.0217 -0.5435,-0.5435 l 0.58698,-3.50013 q 0.0652,-0.50002 0.56523,-0.52176 z"
           inkscape:connector-curvature="0" />
        <path
           id="path81"
           style="font-style:normal;font-variant:normal;font-weight:normal;font-stretch:normal;font-family:'Contrail One';-inkscape-font-specification:'Contrail One';fill:#ffffff;stroke:#8b4412;stroke-width:4.23333311;stroke-miterlimit:4;stroke-dasharray:none;stroke-opacity:1;paint-order:markers stroke fill"
           d="m -412.4459,-556.47455 -2.82619,25.06613 q -0.0652,0.56523 -0.56524,0.58697 l -4.39146,0.15218 q -0.45654,-0.0435 -0.45654,-0.41305 l 0.41306,-2.95663 q -1.00004,1.69571 -2.19574,2.60879 -1.17395,0.91307 -2.65227,0.91307 -1.47831,0 -2.52183,-0.50001 -1.04351,-0.52176 -1.71745,-1.34788 -0.6522,-0.84786 -1.06526,-2.02181 -0.76089,-2.08703 -0.76089,-5.69586 0,-3.63057 0.47828,-6.1524 0.50001,-2.52183 0.86959,-3.82622 0.36958,-1.32614 0.9783,-2.71749 0.63046,-1.39136 1.41309,-2.32617 1.78268,-2.13052 4.50017,-2.13052 2.02181,0 3.08707,0.9783 1.06525,0.95656 1.78267,2.84793 l 0.26088,-2.95663 q 0.0435,-0.47828 0.5435,-0.52176 l 4.26102,-0.15218 q 0.56524,0.0435 0.56524,0.56524 z m -13.26135,15.76144 q 0,5.19584 2.78271,5.19584 1.21743,0 1.97833,-1.10873 0.7609,-1.13048 1.30439,-4.50017 0.56524,-3.36968 0.56524,-4.91322 0,-1.54353 -0.0217,-1.95659 -0.0217,-0.41306 -0.087,-1.087 -0.0652,-0.69567 -0.23914,-1.15221 -0.17392,-0.47828 -0.45653,-0.95656 -0.56524,-0.93482 -1.82616,-0.93482 -1.26091,0 -2.00007,1.13048 -0.73916,1.10874 -1.15222,2.97837 -0.84785,4.00014 -0.84785,7.30461 z"
           inkscape:connector-curvature="0" />
        <path
           id="path83"
           style="font-style:normal;font-variant:normal;font-weight:normal;font-stretch:normal;font-family:'Contrail One';-inkscape-font-specification:'Contrail One';fill:#ffffff;stroke:#8b4412;stroke-width:4.23333311;stroke-miterlimit:4;stroke-dasharray:none;stroke-opacity:1;paint-order:markers stroke fill"
           d="m -400.03241,-530.43013 q -0.5435,0 -0.5435,-0.52175 l 0.5435,-4.54365 q 0.087,-0.47828 0.56523,-0.52176 3.39143,-0.34783 4.47843,-1.06525 1.08699,-0.73916 1.08699,-2.91315 0,-2.17399 -1.10873,-5.65238 -1.10874,-3.50013 -1.43484,-4.65234 -1.04351,-3.69579 -1.04351,-6.0437 0,-2.36965 0.76089,-4.04362 0.7609,-1.67398 2.174,-2.67401 2.73923,-1.91312 7.36983,-1.91312 0.58698,0 0.58698,0.5435 l -0.58698,4.50016 q -0.087,0.5435 -0.5435,0.58698 -4.21754,0.28262 -4.21754,2.50009 0,2.04355 1.78267,8.04377 1.80441,5.97848 1.80441,8.56553 0,9.8047 -11.67433,9.8047 z"
           inkscape:connector-curvature="0" />
        <path
           id="path85"
           style="font-style:normal;font-variant:normal;font-weight:normal;font-stretch:normal;font-family:'Contrail One';-inkscape-font-specification:'Contrail One';fill:#ffffff;stroke:#8b4412;stroke-width:4.23333311;stroke-miterlimit:4;stroke-dasharray:none;stroke-opacity:1;paint-order:markers stroke fill"
           d="m -368.48778,-556.56151 q 0.47827,0.17392 0.47827,0.82612 l -0.50001,3.93492 q -0.0435,0.4348 -0.60872,0.4348 -0.5435,0 -1.04352,-0.2174 -2.10877,-0.93481 -3.50013,-0.93481 -1.39135,0 -2.21747,1.15221 -0.82611,1.15222 -1.32613,3.30447 -0.93482,4.02188 -0.93482,7.34809 0,5.34802 2.76097,5.34802 2.00007,0 3.23925,-0.50002 1.23917,-0.52175 1.60875,-0.52175 0.7609,0 0.7609,0.65219 l -0.45654,3.82623 q -0.0435,0.39132 -0.17392,0.47828 -0.1087,0.0652 -0.30436,0.15218 -2.63053,0.76089 -4.9567,0.76089 -2.30443,0 -3.6523,-0.58697 -1.32614,-0.58698 -2.10878,-1.50006 -0.78263,-0.93482 -1.26091,-2.23921 -0.84786,-2.23921 -0.84786,-5.5002 0,-3.28273 0.41306,-5.69586 0.4348,-2.43487 0.89134,-3.95666 0.47827,-1.5218 1.26091,-2.91315 0.78264,-1.4131 1.82616,-2.32617 2.28269,-2.00008 6.04369,-2.00008 2.52183,0 4.60887,0.67394 z"
           inkscape:connector-curvature="0" />
        <path
           id="path87"
           style="font-style:normal;font-variant:normal;font-weight:normal;font-stretch:normal;font-family:'Contrail One';-inkscape-font-specification:'Contrail One';fill:#ffffff;stroke:#8b4412;stroke-width:4.23333311;stroke-miterlimit:4;stroke-dasharray:none;stroke-opacity:1;paint-order:markers stroke fill"
           d="m -358.94396,-559.40944 q -1.34788,0 -2.15225,-0.84786 -0.80438,-0.84785 -0.80438,-2.17399 0,-1.34787 1.06525,-2.39139 1.087,-1.06525 2.43488,-1.06525 1.34787,0 2.17399,0.84785 0.84785,0.84786 0.84785,2.19573 0,1.32614 -1.10873,2.3914 -1.10874,1.04351 -2.45661,1.04351 z m 2.41313,2.93489 -2.82619,25.06613 q -0.0435,0.30436 -0.15218,0.4348 -0.1087,0.13043 -0.41306,0.15217 l -4.36972,0.15218 q -0.47828,-0.0435 -0.47828,-0.41305 l 2.86967,-25.28353 q 0.087,-0.47828 0.5435,-0.52176 l 4.23928,-0.15218 q 0.58698,0.0435 0.58698,0.56524 z"
           inkscape:connector-curvature="0" />
        <path
           id="path89"
           style="font-style:normal;font-variant:normal;font-weight:normal;font-stretch:normal;font-family:'Contrail One';-inkscape-font-specification:'Contrail One';fill:#ffffff;stroke:#8b4412;stroke-width:4.23333311;stroke-miterlimit:4;stroke-dasharray:none;stroke-opacity:1;paint-order:markers stroke fill"
           d="m -351.4437,-534.82159 q -0.50002,-1.3044 -0.69568,-2.56531 -0.17392,-1.28266 -0.17392,-3.50013 0,-2.21747 0.47828,-5.47846 1.58702,-10.86996 9.86993,-10.86996 3.19576,0 4.89148,2.19574 1.69571,2.19573 1.69571,5.69585 0,3.50013 -0.4348,6.8046 -0.0652,0.58698 -0.67393,0.60872 l -10.73952,0.36957 q -0.0217,0.3261 -0.0217,0.8696 0,2.45661 0.84785,3.89145 0.8696,1.43483 2.60879,1.43483 1.7392,0 3.21751,-0.50002 1.50006,-0.52175 1.76093,-0.52175 0.26088,0 0.45654,0.17391 0.19566,0.17392 0.19566,0.47828 l -0.4348,3.82623 q -0.0217,0.3261 -0.13044,0.4348 -0.087,0.087 -0.36957,0.19566 -2.63053,0.76089 -5.06541,0.76089 -2.43487,0 -3.78274,-0.58697 -1.34788,-0.58698 -2.17399,-1.50006 -0.80438,-0.93482 -1.32614,-2.21747 z m 4.7393,-12.19609 -0.19566,1.39135 5.67412,-0.28262 q 0.36958,-0.0217 0.47828,-0.13044 0.3261,-0.3261 0.3261,-1.78267 0,-1.47832 -0.1087,-2.06529 -0.087,-0.60872 -0.3261,-1.23918 -0.50002,-1.39135 -1.71745,-1.39135 -1.1957,0 -1.89137,0.41305 -1.54354,0.95656 -2.23922,5.08715 z"
           inkscape:connector-curvature="0" />
        <path
           id="path91"
           style="font-style:normal;font-variant:normal;font-weight:normal;font-stretch:normal;font-family:'Contrail One';-inkscape-font-specification:'Contrail One';fill:#ffffff;stroke:#8b4412;stroke-width:4.23333311;stroke-miterlimit:4;stroke-dasharray:none;stroke-opacity:1;paint-order:markers stroke fill"
           d="m -322.94265,-556.47455 -0.23914,2.00007 q 3.13054,-2.76097 6.00021,-2.76097 3.65231,0 4.60887,4.00015 0.26088,1.08699 0.26088,2.06529 0,0.95656 -0.0652,1.54353 l -2.08704,18.21806 q -0.087,0.54349 -0.54349,0.58697 l -4.39147,0.15218 q -0.47828,-0.0435 -0.47828,-0.41305 l 1.97834,-17.21802 q 0.0652,-0.56524 0.0652,-1.02178 0,-1.78267 -0.84786,-2.41313 -0.82612,-0.65219 -2.10877,-0.65219 -1.28266,0 -2.67401,0.54349 l -2.32617,20.43553 q -0.087,0.54349 -0.5435,0.58697 l -4.39147,0.15218 q -0.47827,-0.0435 -0.47827,-0.41305 l 2.86967,-25.28353 q 0.087,-0.47828 0.54349,-0.52176 l 4.26103,-0.15218 q 0.58698,0.0217 0.58698,0.56524 z"
           inkscape:connector-curvature="0" />
        <path
           id="path93"
           style="font-style:normal;font-variant:normal;font-weight:normal;font-stretch:normal;font-family:'Contrail One';-inkscape-font-specification:'Contrail One';fill:#ffffff;stroke:#8b4412;stroke-width:4.23333311;stroke-miterlimit:4;stroke-dasharray:none;stroke-opacity:1;paint-order:markers stroke fill"
           d="m -292.39807,-556.56151 q 0.47828,0.17392 0.47828,0.82612 l -0.50002,3.93492 q -0.0435,0.4348 -0.60872,0.4348 -0.5435,0 -1.04351,-0.2174 -2.10878,-0.93481 -3.50013,-0.93481 -1.39136,0 -2.21747,1.15221 -0.82612,1.15222 -1.32614,3.30447 -0.93481,4.02188 -0.93481,7.34809 0,5.34802 2.76097,5.34802 2.00007,0 3.23924,-0.50002 1.23918,-0.52175 1.60876,-0.52175 0.76089,0 0.76089,0.65219 l -0.45653,3.82623 q -0.0435,0.39132 -0.17392,0.47828 -0.1087,0.0652 -0.30436,0.15218 -2.63053,0.76089 -4.9567,0.76089 -2.30444,0 -3.65231,-0.58697 -1.32614,-0.58698 -2.10877,-1.50006 -0.78264,-0.93482 -1.26092,-2.23921 -0.84785,-2.23921 -0.84785,-5.5002 0,-3.28273 0.41305,-5.69586 0.4348,-2.43487 0.89134,-3.95666 0.47828,-1.5218 1.26092,-2.91315 0.78263,-1.4131 1.82615,-2.32617 2.28269,-2.00008 6.0437,-2.00008 2.52183,0 4.60886,0.67394 z"
           inkscape:connector-curvature="0" />
        <path
           id="path95"
           style="font-style:normal;font-variant:normal;font-weight:normal;font-stretch:normal;font-family:'Contrail One';-inkscape-font-specification:'Contrail One';fill:#ffffff;stroke:#8b4412;stroke-width:4.23333311;stroke-miterlimit:4;stroke-dasharray:none;stroke-opacity:1;paint-order:markers stroke fill"
           d="m -287.26744,-534.82159 q -0.50002,-1.3044 -0.69568,-2.56531 -0.17392,-1.28266 -0.17392,-3.50013 0,-2.21747 0.47828,-5.47846 1.58701,-10.86996 9.86992,-10.86996 3.19577,0 4.89148,2.19574 1.69572,2.19573 1.69572,5.69585 0,3.50013 -0.4348,6.8046 -0.0652,0.58698 -0.67394,0.60872 l -10.73952,0.36957 q -0.0217,0.3261 -0.0217,0.8696 0,2.45661 0.84786,3.89145 0.86959,1.43483 2.60879,1.43483 1.73919,0 3.21751,-0.50002 1.50005,-0.52175 1.76093,-0.52175 0.26088,0 0.45654,0.17391 0.19566,0.17392 0.19566,0.47828 l -0.4348,3.82623 q -0.0217,0.3261 -0.13044,0.4348 -0.087,0.087 -0.36958,0.19566 -2.63053,0.76089 -5.0654,0.76089 -2.43487,0 -3.78275,-0.58697 -1.34787,-0.58698 -2.17399,-1.50006 -0.80438,-0.93482 -1.32613,-2.21747 z m 4.7393,-12.19609 -0.19566,1.39135 5.67412,-0.28262 q 0.36958,-0.0217 0.47828,-0.13044 0.32609,-0.3261 0.32609,-1.78267 0,-1.47832 -0.10869,-2.06529 -0.087,-0.60872 -0.3261,-1.23918 -0.50002,-1.39135 -1.71746,-1.39135 -1.19569,0 -1.89137,0.41305 -1.54353,0.95656 -2.23921,5.08715 z"
           inkscape:connector-curvature="0" />
      </g>
      <circle
         style="opacity:1;vector-effect:none;fill:#999999;fill-opacity:1;stroke:#8b4412;stroke-width:2;stroke-linecap:round;stroke-linejoin:round;stroke-miterlimit:4;stroke-dasharray:none;stroke-dashoffset:0;stroke-opacity:1;paint-order:normal"
         id="path4893"
         cx="-443.91922"
         cy="-581.68542"
         r="5.2822461" />
      <circle
         r="5.2822461"
         cy="-509.02759"
         cx="-443.91922"
         id="circle4895"
         style="opacity:1;vector-effect:none;fill:#999999;fill-opacity:1;stroke:#8b4412;stroke-width:2;stroke-linecap:round;stroke-linejoin:round;stroke-miterlimit:4;stroke-dasharray:none;stroke-dashoffset:0;stroke-opacity:1;paint-order:normal" />
    </g>
    <path
       inkscape:connector-curvature="0"
       id="path367"
       d="m 650.94139,-752.97749 a 4.8383307,4.8383307 0 0 0 -2.827,0.90003 v 4.9e-4 a 4.8383307,4.8383307 0 0 0 -0.951,0.89597 c -4.6608,5.76816 -9.9603,11.70478 -13.7226,18.76871 -13.2856,-3.50725 -26.3371,-5.79371 -40.3535,-6.92054 -1.76,-0.19874 -3.5436,-0.39487 -5.3745,-0.59002 -19.6487,-2.09363 -45.9045,-0.63899 -71.1778,4.50606 -25.2733,5.14505 -49.5163,13.83179 -65.0107,27.38531 -12.7201,11.12676 -21.0673,23.07285 -25.9092,36.59841 -5.2543,13.35875 -7.3916,29.01402 -5.4806,49.27947 0.052,1.08851 0.1089,2.18854 0.175,3.30454 0.4769,8.05653 3.4209,16.49943 8.3096,25.78828 -0.5794,0.16054 -1.2329,0.43661 -1.9486,0.81302 -1.2303,0.28567 -2.4631,0.56676 -3.704,0.83451 a 4.8383307,4.8383307 0 0 0 0.184,9.49409 c 3.9821,0.69912 8.1376,0.97859 12.4086,0.93201 0.7299,1.03251 1.4568,2.05754 2.2121,3.14704 5.8348,9.32513 12.0331,17.74457 16.9652,24.07375 4.9602,6.36545 8.942,10.99946 9.2526,11.38761 a 4.8383307,4.8383307 0 0 0 8.31,-4.70001 c 6.1673,5.29999 12.7393,10.25457 19.5242,14.79463 9.6817,6.73346 19.7156,12.47899 29.6179,17.19919 -3.8765,4.90747 -7.9789,9.82925 -11.7611,13.25813 -3.6208,3.01046 -7.1468,4.56896 -8.7092,4.61307 -0.1202,-0.0309 -0.2468,-0.0714 -0.376,-0.13251 -0.314,-0.24845 -0.9518,-0.95666 -1.6545,-2.05002 -0.9186,-2.39892 -2.5921,-6.43583 -5.376,-9.93862 l 0.341,0.48851 c -0.9649,-1.57959 -2.0297,-3.18895 -4.0601,-4.46755 -1.8871,-1.18837 -4.9823,-1.45108 -7.2981,-0.5 -0.2707,0.0834 -0.5362,0.14469 -0.8109,0.26102 -3.013,1.27512 -5.146,3.83625 -6.2451,6.45454 -1.0706,2.55048 -1.3881,5.19974 -1.404,7.8226 -0.2223,4.53455 0.6793,9.24669 2.2975,13.77315 0.5258,1.6614 1.0785,3.13762 1.648,4.38254 0.4913,1.07387 0.5796,1.83516 1.802,3.02902 3.6257,6.29207 8.6207,11.7825 15.4607,13.48966 4.4914,1.12096 8.5685,0.43709 12.1261,-1.08003 -2.6945,8.46929 -5.0515,17.43924 -6.4431,26.25479 -2.5734,16.30345 -2.1864,32.48009 7.1861,43.38496 a 4.8383307,4.8383307 0 0 0 0,0.005 c 0.08,0.0929 0.1008,0.1152 0.06,0.068 l -0.092,-0.1095 c 2.3118,2.8404 5.1928,5.29948 8.5236,7.40307 -0.093,0.44553 -0.2075,0.93021 -0.3705,1.43102 -0.6981,2.14527 -1.8018,4.95725 -3.079,7.97709 -2.5545,6.03966 -5.7958,12.93273 -8.0781,18.04519 a 4.8383307,4.8383307 0 0 0 -0.414,2.03652 c -1.0312,2.77369 -1.8245,5.37757 -2.0656,7.98159 -0.1456,1.57353 -0.1428,3.23655 0.6366,5.07405 0.7793,1.8375 2.758,3.62937 4.8015,4.18055 l -0.9,-0.34201 c 3.3614,1.67726 6.8132,0.67319 9.2321,-0.62451 4.5402,-2.02401 7.707,-5.84415 10.3396,-10.1211 a 4.8383307,4.8383307 0 0 0 1.2305,-1.31052 c 3.2159,-5.07414 5.2344,-11.16183 6.9941,-17.67269 0,-0.01 0.01,-0.0185 0.01,-0.028 1.0876,-3.47768 1.9096,-6.59563 2.4995,-9.01209 10.9297,2.02436 24.0191,2.25914 39.1494,0.56051 1.0123,-0.11369 2.5053,-0.61256 3.569,-1.82052 1.0638,-1.20797 1.3419,-2.68058 1.3481,-3.60155 0,-0.003 -5e-4,-0.004 -5e-4,-0.007 l 2.267,-0.42501 c 1.5243,-0.23041 3.5606,-0.57929 5.3255,-0.87151 0.208,0.40573 0.4727,0.81023 0.8015,1.21202 a 4.8383307,4.8383307 0 0 0 5.1186,2.47152 c 0.1465,-0.0265 0.2691,-0.0495 0.401,-0.074 0.1197,-0.005 0.2123,0.01 0.337,-0.002 0.2847,-0.0272 0.5938,-0.075 0.8835,-0.10649 -0.4875,2.56718 -1.0646,4.97341 -1.709,7.31706 -1.6538,5.02851 -3.7043,10.62724 -4.8806,15.91668 -0.5936,2.66946 -0.9853,5.2672 -0.8555,7.87808 0.1226,2.46352 0.7813,5.13262 2.6126,7.30608 1.1942,1.5866 3.2777,2.97686 5.566,3.30454 3.011,0.58173 5.9021,-0.60401 7.9416,-2.15653 2.1326,-1.62336 3.8234,-3.71818 5.4411,-6.12956 1.1357,-1.62908 2.0249,-3.1697 2.658,-4.41756 l -0.075,0.14101 c 0.2503,-0.45545 0.496,-0.92287 0.741,-1.39151 a 4.8383307,4.8383307 0 0 0 0.1005,-0.1695 4.8383307,4.8383307 0 0 0 0.057,-0.10201 4.8383307,4.8383307 0 0 0 0.089,-0.1605 c 0.043,-0.0871 0.052,-0.10676 0.028,-0.058 l -0.01,0.004 a 4.8383307,4.8383307 0 0 0 0,-0.008 v 0.004 c 0.023,-0.0464 0.044,-0.0904 0.066,-0.13649 0.1231,-0.2494 0.2436,-0.49624 0.3605,-0.73751 3.3655,-6.72667 6.2824,-14.5977 8.3861,-21.31824 1.0519,-3.36026 1.8953,-6.42197 2.479,-8.94159 0.236,-1.01846 0.4189,-1.81137 0.581,-2.61452 5.0762,-1.40517 10.0486,-2.84339 14.4487,-4.14805 l 0.026,-0.008 c 3.5473,-1.02278 5.689,-1.68852 5.689,-1.68852 a 4.8383307,4.8383307 0 0 0 3.1716,-6.08706 c -5.2626,-16.52801 -8.7366,-34.2831 -10.7841,-46.5685 0.1591,0.0808 0.3014,0.16894 0.4705,0.24499 0.9254,0.48423 1.9846,0.91542 3.337,1.02903 1.4483,0.12165 3.2686,-0.27692 4.64,-1.26201 4.5025,-3.23408 5.3162,-8.88768 4.6941,-13.70915 -0.6182,-4.79142 -2.4448,-9.679 -4.5655,-14.33715 -0.8685,-2.72223 -2.9088,-6.92311 -8.9491,-16.23818 -0.5915,-0.92509 -0.7083,-1.08899 -1.0051,-1.53502 0,-0.0214 0,-0.0462 -0.01,-0.0675 l 0.01,0.0665 c -9e-4,-0.002 0,-0.004 0,-0.005 -0.2839,-4.7988 -2.374,-9.19345 -4.7035,-13.27165 -1.528,-2.81341 -3.3724,-5.6405 -5.3186,-8.47358 19.0923,-9.17847 38.4559,-22.20389 54.7086,-38.4194 0.029,-0.0292 0.054,-0.0539 0.037,-0.0371 a 4.8383307,4.8383307 0 0 0 0.021,-0.0205 c 0.2578,-0.25734 0.522,-0.52102 0.7906,-0.79251 l 0.013,-0.013 c 2.6431,-2.64747 5.1776,-5.37119 7.57,-8.17308 3.0561,-3.52811 5.9331,-7.19685 8.6457,-10.97212 l 3.206,9.76409 a 4.8383307,4.8383307 0 0 0 9.3456,-0.612 4.8383307,4.8383307 0 0 0 0.098,-0.532 l 2.178,-17.2682 c 0.2487,-0.89112 0.5268,-1.79497 0.8745,-2.74003 a 4.8383307,4.8383307 0 0 0 0.215,-0.8085 c 1.2683,-2.49536 1.9311,-5.36528 1.9311,-8.43109 0,-1.85974 -0.2492,-3.64991 -0.7185,-5.32606 l 0.089,0.36951 c -0.302,-1.53368 -0.3048,-3.12408 -0.093,-4.89454 1.3663,-3.80825 3.5101,-10.40405 5.1541,-18.52669 3.3768,-12.22399 5.3507,-28.80116 -3.8416,-51.77706 -9.2727,-23.17526 -28.8884,-37.80268 -53.804,-47.39584 l -0.022,-0.01 c -5.0013,-2.03577 -10.204,-3.81919 -15.7387,-5.47557 0.8398,-3.04582 2.0052,-6.2327 3.2386,-9.5681 1.2622,-2.61302 2.6678,-5.33818 3.9895,-8.19861 a 4.8383307,4.8383307 0 0 0 -4.377,-6.86606 z m -79.1933,21.84123 c 5.3511,0.0687 10.3766,0.34832 14.9397,0.83453 1.8292,0.19496 3.6117,0.3908 5.3705,0.58954 a 4.8383307,4.8383307 0 0 0 0.1575,0.0155 c 14.6199,1.16921 28.0086,3.60816 41.9465,7.49005 a 4.8383307,4.8383307 0 0 0 0.013,0 l 0.593,0.16352 a 4.8383307,4.8383307 0 0 0 3.502,-0.37048 4.8383307,4.8383307 0 0 0 2.8415,2.10852 h -0.025 c 6.9683,1.94075 13.2162,4.00332 19.1153,6.40551 a 4.8383307,4.8383307 0 0 0 0.089,0.0348 c 23.5064,9.03448 40.3099,21.82352 48.38,41.99444 8.4978,21.24018 6.5616,34.63512 3.4521,45.797 a 4.8383307,4.8383307 0 0 0 -0.083,0.34406 c -1.5987,7.94433 -3.7807,14.52076 -5.0125,17.89813 a 4.8383307,4.8383307 0 0 0 -0.2485,1.00402 c -0.3709,2.72143 -0.4046,5.55331 0.162,8.43057 a 4.8383307,4.8383307 0 0 0 0.088,0.37 c 0.2244,0.80142 0.36,1.72703 0.36,2.71704 0,2.09776 -0.6595,3.89884 -1.3265,4.82806 a 4.8383307,4.8383307 0 0 0 -0.466,0.80551 c -0.056,-0.0616 -0.1054,-0.11044 -0.1845,-0.21551 a 4.8383307,4.8383307 0 0 0 -8.0191,0.4305 c -0.1148,0.19237 -0.2508,0.41334 -0.4035,0.66551 a 4.8383307,4.8383307 0 0 0 -0.123,0.22851 4.8383307,4.8383307 0 0 0 -0.153,0.242 v -0.0225 c -0.03,0.0498 -0.044,0.0726 -0.042,0.068 a 4.8383307,4.8383307 0 0 0 -0.037,0.0674 4.8383307,4.8383307 0 0 0 -0.045,0.067 c -3.8847,6.32683 -8.3814,12.37824 -13.3462,18.10917 a 4.8383307,4.8383307 0 0 0 -0.023,0.027 c -2.2192,2.59991 -4.5915,5.15098 -7.0851,7.64808 a 4.8383307,4.8383307 0 0 0 -0.018,0.0175 c -0.2469,0.24975 -0.5019,0.50422 -0.7635,0.7655 -0.024,0.0243 -0.055,0.0552 -0.044,0.0445 a 4.8383307,4.8383307 0 0 0 -0.011,0.01 c -16.8251,16.7866 -37.4686,30.19725 -57.2261,38.96343 h 0.7215 a 4.8383307,4.8383307 0 0 0 -1.2835,0.26849 4.8383307,4.8383307 0 0 0 -2.689,4.95206 l -0.5085,-0.32851 0.09,-1.00102 0.099,-0.51001 a 4.8383307,4.8383307 0 0 0 3.3575,6.12508 c 2.4686,3.46212 4.7223,6.83102 6.4011,9.92711 a 4.8383307,4.8383307 0 0 0 0.053,0.096 c 2.0273,3.54379 3.411,7.27715 3.4935,9.2461 a 4.8383307,4.8383307 0 0 0 0.031,0.3805 c 0.037,0.30551 0.063,0.58059 0.077,0.81899 a 4.8383307,4.8383307 0 0 0 0.829,2.44652 c 0,0 0.615,0.90458 1.5745,2.40653 a 4.8383307,4.8383307 0 0 0 0.018,0.0275 c 6.2241,9.59834 7.8079,13.63063 7.9716,14.21015 a 4.8383307,4.8383307 0 0 0 0.2545,0.69301 c 1.9178,4.20239 3.4073,8.52117 3.8106,11.64661 0.1906,1.4778 0.1751,2.45394 0.046,3.15204 -0.168,-0.15532 -0.3284,-0.28238 -0.489,-0.466 a 4.8383307,4.8383307 0 0 0 -0.2095,-0.22451 c -1.0201,-1.02628 -2.1302,-2.3599 -3.0796,-3.60505 a 4.8383307,4.8383307 0 0 0 -0.281,-0.336 c -0.7859,-0.85713 -1.7247,-2.02028 -2.4345,-3.23652 a 4.8383307,4.8383307 0 0 0 -8.9836,2.99853 c 0,0 3.4948,30.2104 12.0111,58.96212 -0.4932,0.14427 -0.3322,0.10357 -0.908,0.26951 a 4.8383307,4.8383307 0 0 0 -0.035,0.0105 c -5.3079,1.57396 -11.3517,3.34203 -17.4277,4.97955 a 4.8383307,4.8383307 0 0 0 -3.4475,3.55254 c -0.023,0.0982 -0.055,0.22477 -0.09,0.37352 a 4.8383307,4.8383307 0 0 0 -0.121,1.44101 c -0.047,-0.70036 -0.1461,1.32407 -0.6545,3.51853 -0.5088,2.19637 -1.2963,5.07012 -2.287,8.23509 -1.9815,6.32993 -4.7979,13.8692 -7.8051,19.87971 a 4.8383307,4.8383307 0 0 0 -0.027,0.0565 c -0.1,0.20659 -0.1978,0.40567 -0.296,0.60551 a 4.8383307,4.8383307 0 0 0 -0.13,0.23 c -0.2717,0.52598 -0.5442,1.03788 -0.8165,1.53352 a 4.8383307,4.8383307 0 0 0 -0.074,0.1405 c -0.4268,0.84111 -1.1298,2.06518 -1.977,3.27853 a 4.8383307,4.8383307 0 0 0 -0.054,0.08 c -1.2757,1.90711 -2.5286,3.28114 -3.2996,3.86805 -0.2267,0.17259 -0.2282,0.1703 -0.3055,0.223 -0.068,-0.10803 -0.2395,-0.43432 -0.2905,-1.45901 -0.061,-1.22416 0.1516,-3.114 0.637,-5.29706 0.9709,-4.36613 2.9475,-9.87329 4.6781,-15.14816 a 4.8383307,4.8383307 0 0 0 0.067,-0.223 c 1.1754,-4.26577 2.2501,-8.94036 2.876,-14.46366 a 4.8383307,4.8383307 0 0 0 -0.028,-1.29901 c -0.058,-0.37124 -0.136,-0.74976 -0.2395,-1.13651 a 4.8383307,4.8383307 0 0 0 -5.5221,-3.51204 c -1.3871,0.24712 -2.6893,0.44504 -3.938,0.61451 -0.086,-0.24287 -0.1728,-0.48755 -0.2505,-0.71302 a 4.8383307,4.8383307 0 0 0 -5.3846,-3.19353 c -4.1051,0.69763 -6.8698,1.1599 -9.5476,1.56352 a 4.8383307,4.8383307 0 0 0 -0.1705,0.0285 l -5.0105,0.9395 a 4.8383307,4.8383307 0 0 0 -1.8655,0.029 c -0.08,0.0172 -0.1827,0.0627 -0.2671,0.0845 a 4.8383307,4.8383307 0 0 0 -0.7675,0.24401 c -0.015,0.007 -0.027,0.007 -0.042,0.013 a 4.8383307,4.8383307 0 0 0 -0.06,0.0295 4.8383307,4.8383307 0 0 0 -0.132,0.0555 c -0.018,0.009 -0.034,0.0257 -0.052,0.0345 a 4.8383307,4.8383307 0 0 0 -1.763,1.49551 c -0.5886,0.72979 -1.0348,1.55759 -1.1865,2.27152 -0.08,0.37811 -0.1151,0.70879 -0.1295,1.01501 -14.4138,1.23705 -26.4543,0.4943 -35.7164,-1.80551 a 4.8383307,4.8383307 0 0 0 -0.036,-0.009 c -0.075,-0.018 -0.167,-0.0407 -0.276,-0.0675 a 4.8383307,4.8383307 0 0 0 -5.8595,3.58304 c -0.012,0.0488 -0.02,0.0837 -0.025,0.106 a 4.8383307,4.8383307 0 0 0 -0.114,1.48551 c -0.305,1.46481 -1.2121,5.67373 -3.078,11.60763 a 4.8383307,4.8383307 0 0 0 -0.056,0.1895 c -1.5215,5.63322 -3.2576,10.49938 -5.2925,14.05365 a 4.8383307,4.8383307 0 0 0 -1.1475,1.33101 c -2.2156,3.82083 -4.7311,6.42217 -6.5851,7.33958 0.3296,-1.4434 0.8656,-3.28663 1.7545,-5.54656 a 4.8383307,4.8383307 0 0 0 0.3245,-1.51551 c 2.1698,-4.80432 4.999,-10.87906 7.4141,-16.58918 1.3341,-3.15413 2.5179,-6.13949 3.3681,-8.75209 0.8501,-2.61262 1.7258,-4.33751 1.1745,-7.55959 a 4.8383307,4.8383307 0 0 0 -0.364,-1.18551 c -0.1655,-0.36404 -0.385,-0.76742 -0.6935,-1.18551 a 4.8383307,4.8383307 0 0 0 -1.6201,-1.39802 c -3.5896,-1.91017 -6.3404,-4.14211 -8.3465,-6.60706 a 4.8383307,4.8383307 0 0 0 -0.092,-0.11001 c -0.071,-0.0818 -0.077,-0.0878 -0.046,-0.0519 v -0.004 c 7e-4,9e-4 0,-0.002 -10e-4,-9.7e-4 -6.1947,-7.21276 -7.3426,-20.48964 -4.9631,-35.56439 2.3801,-15.0781 7.9862,-31.48857 13.1012,-44.20296 a 4.8383307,4.8383307 0 0 0 -8.8086,-3.98205 c 0.2215,-0.43961 0.015,-0.0286 -0.01,0.008 -0.019,0.0367 -0.049,0.0923 -0.085,0.161 a 4.8383307,4.8383307 0 0 0 -0.021,0.039 c -1.2719,2.43428 -2.8227,4.60339 -4.5131,6.38358 a 4.8383307,4.8383307 0 0 0 -0.078,0.084 c -3.4236,3.78098 -7.5438,6.67205 -12.4881,5.43806 -2.8258,-0.70529 -6.9097,-4.36201 -9.7591,-9.49711 a 4.8383307,4.8383307 0 0 0 -1.2135,-1.43502 c 1.4852,1.18442 0.5261,0.56367 0.1655,-0.2245 -0.3606,-0.78815 -0.8259,-1.99758 -1.2645,-3.39905 a 4.8383307,4.8383307 0 0 0 -0.063,-0.18698 c -1.2781,-3.56638 -1.8982,-7.22322 -1.7541,-10.09212 a 4.8383307,4.8383307 0 0 0 0.01,-0.24299 c 0,-1.84537 0.2824,-3.39523 0.6565,-4.28656 0.2742,-0.65312 0.4969,-0.89703 0.7765,-1.08051 0.1522,0.19815 0.2821,0.34128 0.4591,0.63102 a 4.8383307,4.8383307 0 0 0 0.3409,0.48799 c 1.6505,2.07662 3.4281,6.05931 4.1231,7.90508 a 4.8383307,4.8383307 0 0 0 0.398,0.81553 c 1.1899,1.94948 2.5844,3.92767 4.8661,5.43555 a 4.8383307,4.8383307 0 0 0 0.29,0.17751 c 1.2866,0.72603 2.6977,1.21027 4.12,1.42151 a 4.8383307,4.8383307 0 0 0 0.455,0.0455 c 6.1335,0.3242 11.1437,-3.11809 15.7162,-6.94256 a 4.8383307,4.8383307 0 0 0 0.138,-0.11999 c 5.6491,-5.09991 10.9439,-11.90221 15.5632,-17.86571 a 4.8383307,4.8383307 0 0 0 -0.3346,-8.70909 c -0.039,-0.017 -0.075,-0.0327 -0.1095,-0.0475 a 4.8383307,4.8383307 0 0 0 -0.01,-0.004 4.8383307,4.8383307 0 0 0 0,-9.7e-4 c -11.1714,-4.86544 -22.79,-11.32446 -33.8868,-19.0452 a 4.8383307,4.8383307 0 0 0 -0.074,-0.0505 c -16.5468,-11.07102 -31.7102,-24.62237 -41.7608,-39.27516 a 4.8383307,4.8383307 0 0 0 -0.087,-0.11399 4.8383307,4.8383307 0 0 0 -0.1355,-0.21151 c -1.7446,-2.56535 -3.333,-5.16252 -4.7486,-7.78407 a 4.8383307,4.8383307 0 0 0 -0.1415,-0.24399 c -0.092,-0.14961 -0.2029,-0.33516 -0.337,-0.55502 a 4.8383307,4.8383307 0 0 0 -5.56,-2.10202 c 0.064,-0.02 0,-0.003 -0.1435,0.043 a 4.8383307,4.8383307 0 0 0 -2.4706,1.78253 c -0.4483,-0.51204 -0.8481,-0.79694 -1.2375,-1.03702 a 4.8383307,4.8383307 0 0 0 -0.6485,-2.72702 c -6.2881,-10.76876 -9.5686,-19.65735 -9.9971,-26.89733 -0.064,-1.07787 -0.1196,-2.1449 -0.17,-3.20749 a 4.8383307,4.8383307 0 0 0 -0.017,-0.23154 c -1.8437,-19.28704 0.1765,-33.22149 4.8611,-45.09841 a 4.8383307,4.8383307 0 0 0 0.056,-0.149 c 4.2693,-11.96303 11.4375,-22.35588 23.1952,-32.64086 13.1943,-11.54165 36.246,-20.23536 60.5707,-25.18728 18.2435,-3.71401 37.2298,-5.40678 53.283,-5.20059 z m -138.5875,137.00649 c 0.044,0.0371 0.037,0.0947 -0.023,0.114 -0.074,0.0238 -0.3722,0.0872 -0.5185,0.12498 0.2708,-0.22175 0.4771,-0.29333 0.541,-0.23898 z m 268.1894,3.35302 1.031,0.002 0.1795,0.435 a 4.8383307,4.8383307 0 0 0 -1.253,-0.28949 z m -265.2313,9.7846 c -0.021,0.0357 -0.079,0.0454 -0.1905,0.002 0.064,-9.6e-4 0.1268,-3.5e-4 0.1905,-0.002 z m 266.3358,15.78767 a 4.8383307,4.8383307 0 0 0 0.06,0.1615 v 5e-4 c 10e-5,1.4e-4 -0.056,-0.162 -0.056,-0.162 z m -169.2283,51.22256 c -0.092,0.13511 -0.016,0.0226 -0.017,0.024 -5e-4,6.7e-4 -8e-4,0.002 -0.014,0.021 -0.01,0.01 -0.015,0.0213 -0.043,0.058 0,0.006 -0.016,0.0206 -0.021,0.0275 a 4.8383307,4.8383307 0 0 0 0.095,-0.13049 z m -15.9277,41.04942 -0.078,0.084 c 0.013,-0.0138 0.025,-0.0296 0.038,-0.0435 0.012,-0.0135 0.028,-0.027 0.04,-0.0405 z m 92.4975,119.16727 a 4.8383307,4.8383307 0 0 0 0.082,5.1e-4 l -0.01,0.004 c 0.2111,0.009 0.1887,0.0117 -0.075,-0.005 z"
       style="color:#000000;font-style:normal;font-variant:normal;font-weight:normal;font-stretch:normal;font-size:medium;line-height:normal;font-family:sans-serif;font-variant-ligatures:normal;font-variant-position:normal;font-variant-caps:normal;font-variant-numeric:normal;font-variant-alternates:normal;font-feature-settings:normal;text-indent:0;text-align:start;text-decoration:none;text-decoration-line:none;text-decoration-style:solid;text-decoration-color:#000000;letter-spacing:normal;word-spacing:normal;text-transform:none;writing-mode:lr-tb;direction:ltr;text-orientation:mixed;dominant-baseline:auto;baseline-shift:baseline;text-anchor:start;white-space:normal;shape-padding:0;clip-rule:nonzero;display:inline;overflow:visible;visibility:visible;opacity:1;isolation:auto;mix-blend-mode:normal;color-interpolation:sRGB;color-interpolation-filters:linearRGB;solid-color:#000000;solid-opacity:1;vector-effect:none;fill:#ffffff;fill-opacity:1;fill-rule:nonzero;stroke:none;stroke-width:9.67569351;stroke-linecap:round;stroke-linejoin:round;stroke-miterlimit:4;stroke-dasharray:none;stroke-dashoffset:0;stroke-opacity:1;paint-order:normal;color-rendering:auto;image-rendering:auto;shape-rendering:auto;text-rendering:auto;enable-background:accumulate" />
    <path
       style="display:inline;opacity:1;fill:#ffdab9;fill-opacity:1;fill-rule:nonzero;stroke:none;stroke-width:0.68058538;stroke-linecap:round;stroke-linejoin:miter;stroke-miterlimit:4;stroke-dasharray:none;stroke-dashoffset:0;stroke-opacity:1;paint-order:normal"
       d="m 636.61629,-457.5646 c 0.033,0.15539 5.1623,8.37571 8.7623,3.57145 4.8098,-6.41848 -2.1846,-19.88585 -2.2636,-19.85581 z"
       id="path369"
       inkscape:connector-curvature="0"
       sodipodi:nodetypes="cscc"
       inkscape:export-xdpi="96"
       inkscape:export-ydpi="96" />
    <path
       style="display:inline;opacity:1;fill:#ffdab9;fill-opacity:1;fill-rule:nonzero;stroke:none;stroke-width:0.68058538;stroke-linecap:round;stroke-linejoin:miter;stroke-miterlimit:4;stroke-dasharray:none;stroke-dashoffset:0;stroke-opacity:1;paint-order:normal"
       d="m 484.04839,-481.16503 c -1.1651,2.15101 -10.671,-23.59727 -0.4267,-27.93285 6.2119,-2.62899 11.4802,13.23093 11.4623,13.22841 z"
       id="path371"
       inkscape:connector-curvature="0"
       sodipodi:nodetypes="cscc"
       inkscape:export-xdpi="96"
       inkscape:export-ydpi="96" />
    <path
       style="display:inline;opacity:1;fill:#cd853f;fill-opacity:1;fill-rule:nonzero;stroke:none;stroke-width:0.68058538;stroke-linecap:round;stroke-linejoin:miter;stroke-miterlimit:4;stroke-dasharray:none;stroke-dashoffset:0;stroke-opacity:1;paint-order:normal"
       d="m 510.09979,-358.89443 12.9425,2.5634 c 0.096,0.71541 -8.5915,12.43083 -13.7762,9.6692 -4.1524,-2.21182 0.831,-12.2326 0.8337,-12.2326 z"
       id="path373"
       inkscape:connector-curvature="0"
       sodipodi:nodetypes="ccsc"
       inkscape:export-xdpi="96"
       inkscape:export-ydpi="96" />
    <path
       style="display:inline;opacity:1;fill:#add8e6;fill-opacity:1;fill-rule:nonzero;stroke:none;stroke-width:0.68058538;stroke-linecap:round;stroke-linejoin:miter;stroke-miterlimit:4;stroke-dasharray:none;stroke-dashoffset:0;stroke-opacity:1"
       d="m 521.71189,-391.51218 c 1.7767,2.69044 -7.4356,21.67529 -12.1618,32.26201 5.089,1.20238 6.4562,5.21981 14.357,2.3125 4.7034,-7.421 7.0933,-18.81265 9.8784,-30.54991 z"
       id="path375"
       inkscape:connector-curvature="0"
       sodipodi:nodetypes="ccccc"
       inkscape:export-xdpi="96"
       inkscape:export-ydpi="96" />
    <path
       style="display:inline;opacity:1;fill:#add8e6;fill-opacity:1;fill-rule:nonzero;stroke:none;stroke-width:0.68058538;stroke-linecap:round;stroke-linejoin:miter;stroke-miterlimit:4;stroke-dasharray:none;stroke-dashoffset:0;stroke-opacity:1"
       d="m 602.56869,-390.7804 c -1.1259,12.68785 -4.7049,20.46929 -7.1345,30.54993 1.9051,5.17971 8.9863,2.32779 14.6145,1.69079 6.0791,-12.2425 9.2397,-24.63055 11.911,-35.89942 z"
       id="path377"
       inkscape:connector-curvature="0"
       sodipodi:nodetypes="ccccc"
       inkscape:export-xdpi="96"
       inkscape:export-ydpi="96" />
    <path
       style="display:inline;opacity:1;fill:#ffffff;fill-opacity:1;fill-rule:nonzero;stroke:none;stroke-width:0.68058538;stroke-linecap:round;stroke-linejoin:miter;stroke-miterlimit:4;stroke-dasharray:none;stroke-dashoffset:0;stroke-opacity:1"
       d="m 495.08399,-495.86947 -11.0356,14.70444 c 9.5882,19.66284 27.2518,12.58637 35.1024,-2.76531 -9.5932,27.53348 -19.9411,55.2402 -10.976,78.51519 6.4388,16.11394 30.33,24.32868 67.9295,20.10746 2.0972,-0.23552 -1.987,-4.60215 0.2359,-4.8888 6.1821,-0.7972 9.182,-1.29121 16.7027,-2.57011 0,0 -0.6456,4.61515 2.3058,4.33285 13.5142,-1.29257 36.0124,-8.18454 49.6607,-12.22509 -9.3678,-29.42118 -13.2545,-62.77283 -13.2545,-62.77283 1.9953,3.41884 4.8614,5.86707 4.8614,5.86707 l 6.4993,-16.21924 c 0,0 0.8801,-2.12012 -10.3628,-19.07368 -0.4105,-7.27225 -5.6866,-15.89591 -12.2566,-24.87911 l -91.6487,1.02814 c -10.5988,13.67059 -24.9065,32.39364 -33.7635,20.83902 z"
       id="path379"
       inkscape:connector-curvature="0"
       sodipodi:nodetypes="ccccsssscsccccccc"
       inkscape:export-xdpi="96"
       inkscape:export-ydpi="96" />
    <path
       style="display:inline;opacity:1;fill:#ffdab9;fill-opacity:1;fill-rule:nonzero;stroke:none;stroke-width:0.92040426;stroke-linecap:round;stroke-linejoin:miter;stroke-miterlimit:4;stroke-dasharray:none;stroke-dashoffset:0;stroke-opacity:1"
       d="m 716.22779,-652.22606 c 10.9082,84.43329 -94.6976,147.22651 -145.4452,146.16189 -50.0625,-1.0501 -152.771,-67.49541 -137.9964,-142.1698 48.7909,-114.53466 281.5674,-64.55245 283.4416,-3.99209 z"
       id="path381"
       inkscape:connector-curvature="0"
       sodipodi:nodetypes="csccc"
       inkscape:export-xdpi="96"
       inkscape:export-ydpi="96" />
    <ellipse
       style="display:inline;opacity:1;fill:#ffdab9;fill-opacity:1;fill-rule:nonzero;stroke:none;stroke-width:1.21166265;stroke-linecap:round;stroke-linejoin:miter;stroke-miterlimit:4;stroke-dasharray:none;stroke-dashoffset:0;stroke-opacity:1;paint-order:normal"
       id="ellipse391"
       cx="705.65167"
       cy="-595.44904"
       rx="6.4941096"
       ry="9.8957844"
       inkscape:export-xdpi="96"
       inkscape:export-ydpi="96" />
    <path
       style="display:inline;opacity:1;fill:#ffdab9;fill-opacity:1;fill-rule:nonzero;stroke:none;stroke-width:0.92040426;stroke-linecap:round;stroke-linejoin:miter;stroke-miterlimit:4;stroke-dasharray:none;stroke-dashoffset:0;stroke-opacity:1;paint-order:normal"
       d="m 703.55939,-593.34937 c -1.7187,-0.44866 -2.1239,-1.65909 -1.6752,-3.37769 0.4486,-1.71859 2.2055,-2.74819 3.9241,-2.29952"
       id="path393"
       inkscape:connector-curvature="0"
       sodipodi:nodetypes="csc"
       inkscape:export-xdpi="96"
       inkscape:export-ydpi="96" />
    <path
       style="display:inline;opacity:1;fill:#cd853f;fill-opacity:1;fill-rule:nonzero;stroke:none;stroke-width:0.68058538;stroke-linecap:round;stroke-linejoin:miter;stroke-miterlimit:4;stroke-dasharray:none;stroke-dashoffset:0;stroke-opacity:1;paint-order:normal"
       d="m 595.78889,-360.06797 2.3444,2.02103 7.424,-0.14696 4.2774,-0.47244 c 0.5059,0.0345 -5.7386,12.53843 -11.6117,11.90228 -5.7368,-0.6214 -3.8988,-12.93744 -2.4341,-13.30363 z"
       id="path395"
       inkscape:connector-curvature="0"
       sodipodi:nodetypes="ccccsc"
       inkscape:export-xdpi="96"
       inkscape:export-ydpi="96" />
    <path
       sodipodi:nodetypes="cccssccsccccccssccsccscccccccc"
       style="display:inline;opacity:1;fill:#eb4e14;fill-opacity:1;fill-rule:nonzero;stroke:none;stroke-width:1.41758263;stroke-linecap:round;stroke-linejoin:bevel;stroke-miterlimit:4;stroke-dasharray:none;stroke-dashoffset:0;stroke-opacity:1;paint-order:normal"
       d="m 648.52179,-744.43804 c -3.9407,5.50335 -10.0743,10.8153 -12.1482,17.82234 l -0.9135,-0.25118 c -25.0602,-6.97956 -48.6409,-9.43883 -79.8821,-8.157 -42.9721,1.76311 -92.0885,15.48334 -112.8395,43.30705 -13.6259,18.27013 -21.127,37.65606 -17.5994,71.04562 -0.1866,6.54754 4.8223,19.36494 10.6358,30.1873 0.874,1.62716 -7.922,1.66722 -7.9446,3.50995 -0.01,0.82505 9.644,0.32578 10.6832,1.77723 8.326,11.62912 18.5063,27.87964 23.9576,32.34759 1.3996,1.14705 -6.907,-14.14945 -11.26,-23.10837 -2.5227,-5.19226 -5.0473,-9.41106 -5.448,-9.96625 5.5788,-1.73117 33.5242,-9.78532 33.5242,-9.78532 9.9595,-3.2161 32.1105,-17.74329 32.1105,-17.74329 14.7647,-0.47227 21.122,-0.60057 40.6915,-12.70844 7.1254,-4.40853 12.8787,-7.1216 17.9793,-10.60495 24.2587,-16.56681 33.1311,-24.91278 49.4869,-28.80541 10.8583,-2.27001 31.695,-2.28801 33.5392,1.03221 7.1091,14.54063 36.5478,44.65971 43.8285,55.94321 5.2411,8.12275 9.0412,-1.52731 13.6236,5.09687 0,0 11.7508,-28.0957 7.3321,-52.50293 -2.3882,-13.19165 -10.2467,-33.80136 -24.9592,-44.73257 -16.5552,-12.30032 -31.0203,-18.796 -50.5353,-24.23122 h -0.011 c 1.036,-6.57861 3.9674,-12.99137 6.1477,-19.46973 z m 52.1135,158.02798 c 0.1442,0.19206 6.4306,19.74325 6.4306,19.74325 l 2.4022,-19.04321 c -2.7778,0.46888 -5.7511,0.11291 -8.8328,-0.70004 z"
       id="path397"
       inkscape:connector-curvature="0"
       inkscape:export-xdpi="96"
       inkscape:export-ydpi="96" />
    <path
       sodipodi:nodetypes="cccccccccccccccccc"
       inkscape:connector-curvature="0"
       id="path399"
       d="m 547.20509,-509.55777 4.2463,5.77871 7.5265,4.96063 1.9881,6.62389 3.3146,23.13978 3.421,12.4871 6.0541,32.84268 2.4988,33.86903 16.4214,-3.079 c -6.3365,-19.2801 -9.1138,-38.68269 -9.7502,-58.15895 l 5.1316,-32.5006 2.0527,-13.34229 11.9328,-11.47789 3.1201,-3.91711 -18.8161,4.6185 -15.7371,1.88153 -19.8425,-4.27636 z"
       style="display:inline;fill:#b1cdf1;fill-opacity:1;stroke:none;stroke-width:0.47624823px;stroke-linecap:butt;stroke-linejoin:miter;stroke-opacity:1" />
    <path
       sodipodi:nodetypes="cccccccc"
       inkscape:connector-curvature="0"
       id="path401"
       d="m 530.09769,-516.84308 -0.017,1.74075 c 2.4965,7.69692 3.5351,16.22691 8.9507,22.25565 3.5421,0.22457 6.8779,-0.24548 10.1602,-1.93524 9.9307,15.05625 12.9555,27.70221 19.2108,41.53338 -2.7696,-14.36026 -7.2192,-29.04051 -8.3249,-42.98483 -1.9064,-3.04939 -3.9178,-6.06879 -8.9507,-8.22492 l -6.6403,-6.73225"
       style="display:inline;opacity:1;vector-effect:none;fill:none;fill-opacity:1;stroke:#8b4513;stroke-width:1.82642698;stroke-linecap:round;stroke-linejoin:round;stroke-miterlimit:4;stroke-dasharray:none;stroke-dashoffset:0;stroke-opacity:1" />
    <path
       sodipodi:nodetypes="cc"
       inkscape:connector-curvature="0"
       id="path403"
       d="m 568.30169,-453.65735 c 5.5154,22.92493 5.4834,45.15642 8.225,67.7346"
       style="display:inline;opacity:1;vector-effect:none;fill:none;fill-opacity:1;stroke:#8b4513;stroke-width:1.82642698;stroke-linecap:round;stroke-linejoin:round;stroke-miterlimit:4;stroke-dasharray:none;stroke-dashoffset:0;stroke-opacity:1" />
    <path
       style="display:inline;opacity:1;vector-effect:none;fill:none;fill-opacity:1;stroke:#8b4513;stroke-width:1.82677102;stroke-linecap:round;stroke-linejoin:round;stroke-miterlimit:4;stroke-dasharray:none;stroke-dashoffset:0;stroke-opacity:1"
       d="m 618.19699,-516.98415 c 0,0 -2.9159,18.27167 -8.1236,24.48105 -3.5325,0.34474 -6.8824,-0.0126 -10.2201,-1.58904 -9.4136,15.38503 -11.7806,27.34942 -17.5625,41.38512 2.2801,-14.44604 6.0022,-28.49206 6.6335,-42.46589 1.8017,-3.11239 3.7094,-6.19835 8.6661,-8.52429 l 6.6648,-8.39144"
       id="path405"
       inkscape:connector-curvature="0"
       sodipodi:nodetypes="ccccccc" />
    <path
       sodipodi:nodetypes="cc"
       style="display:inline;opacity:1;vector-effect:none;fill:none;fill-opacity:1;stroke:#8b4513;stroke-width:1.82642698;stroke-linecap:round;stroke-linejoin:round;stroke-miterlimit:4;stroke-dasharray:none;stroke-dashoffset:0;stroke-opacity:1"
       d="m 582.27719,-452.66897 c 2.1617,22.3822 3.6024,42.57645 11.9275,64.34228"
       id="path407"
       inkscape:connector-curvature="0" />
    <path
       inkscape:connector-curvature="0"
       id="path409"
       d="m 576.08339,-390.54017 15.3095,-2.56584"
       style="display:inline;opacity:1;vector-effect:none;fill:none;fill-opacity:1;stroke:#8b4513;stroke-width:1.82642698;stroke-linecap:round;stroke-linejoin:round;stroke-miterlimit:4;stroke-dasharray:none;stroke-dashoffset:0;stroke-opacity:1" />
    <path
       sodipodi:nodetypes="cscccsc"
       inkscape:connector-curvature="0"
       id="path411"
       d="m 529.39509,-506.76053 c 0,0 -41.2419,80.01338 -17.5617,107.56514 12.8693,14.97323 37.8131,16.39813 64.677,13.29814 m 17.7018,-2.40526 c 26.7586,-4.84016 50.7972,-12.35633 50.7972,-12.35633 0,0 -19.296,-59.10566 -12.5271,-91.08278 1.9759,-9.33492 -13.2065,-26.60981 -13.2065,-26.60981"
       style="opacity:1;fill:none;fill-opacity:1;fill-rule:nonzero;stroke:#8b4513;stroke-width:1.82642698;stroke-linecap:round;stroke-linejoin:round;stroke-miterlimit:4;stroke-dasharray:none;stroke-dashoffset:0;stroke-opacity:1"
       inkscape:export-xdpi="96"
       inkscape:export-ydpi="96" />
    <path
       style="opacity:1;fill:none;fill-opacity:1;fill-rule:nonzero;stroke:#8b4513;stroke-width:1.82642698;stroke-linecap:round;stroke-linejoin:round;stroke-miterlimit:4;stroke-dasharray:none;stroke-dashoffset:0;stroke-opacity:1"
       d="m 521.71189,-391.31219 c 4.0438,5.44952 -22.4421,43.95972 -11.7078,44.80179 15.7443,1.23507 23.8043,-40.15128 23.8043,-40.15128"
       id="path413"
       inkscape:connector-curvature="0"
       sodipodi:nodetypes="csc"
       inkscape:export-xdpi="96"
       inkscape:export-ydpi="96" />
    <path
       style="opacity:1;fill:none;fill-opacity:1;fill-rule:nonzero;stroke:#8b4513;stroke-width:1.82642698;stroke-linecap:round;stroke-linejoin:round;stroke-miterlimit:4;stroke-dasharray:none;stroke-dashoffset:0;stroke-opacity:1"
       d="m 529.30879,-516.82025 c 0,0 -17.1383,25.1002 -28.8172,24.47486 -7.8368,-0.41953 -9.7263,-20.85392 -16.4641,-16.8299 -11.9551,7.14008 -1.071,36.50769 12.4395,39.87965 13.6383,3.40387 22.6838,-14.6347 22.6838,-14.6347"
       id="path415"
       inkscape:connector-curvature="0"
       sodipodi:nodetypes="csssc"
       inkscape:export-xdpi="96"
       inkscape:export-ydpi="96" />
    <path
       style="opacity:1;fill:none;fill-opacity:1;fill-rule:nonzero;stroke:#8b4513;stroke-width:1.82642698;stroke-linecap:round;stroke-linejoin:round;stroke-miterlimit:4;stroke-dasharray:none;stroke-dashoffset:0;stroke-opacity:1"
       d="m 632.75279,-492.85752 c 0,0 22.3759,32.58255 11.7078,40.24541 -3.9285,2.82179 -12.6225,-10.976 -12.6225,-10.976"
       id="path417"
       inkscape:connector-curvature="0"
       sodipodi:nodetypes="csc"
       inkscape:export-xdpi="96"
       inkscape:export-ydpi="96" />
    <path
       style="opacity:1;fill:none;fill-opacity:1;fill-rule:nonzero;stroke:#8b4513;stroke-width:1.82642698;stroke-linecap:round;stroke-linejoin:round;stroke-miterlimit:4;stroke-dasharray:none;stroke-dashoffset:0;stroke-opacity:1"
       d="m 595.18749,-360.07121 c 3.0996,5.24796 10.3853,1.2064 14.9058,1.47764"
       id="path419"
       inkscape:connector-curvature="0"
       sodipodi:nodetypes="cc"
       inkscape:export-xdpi="96"
       inkscape:export-ydpi="96" />
    <path
       style="opacity:1;fill:none;fill-opacity:1;fill-rule:nonzero;stroke:#8b4513;stroke-width:1.82642698;stroke-linecap:round;stroke-linejoin:round;stroke-miterlimit:4;stroke-dasharray:none;stroke-dashoffset:0;stroke-opacity:1;paint-order:normal"
       d="m 510.09979,-358.89443 c 5.1516,2.50642 6.304,3.93478 12.9425,2.5634"
       id="path421"
       inkscape:connector-curvature="0"
       sodipodi:nodetypes="cc"
       inkscape:export-xdpi="96"
       inkscape:export-ydpi="96" />
    <path
       style="opacity:1;fill:#b22222;fill-opacity:1;fill-rule:nonzero;stroke:#8b4513;stroke-width:1.82642698;stroke-linecap:round;stroke-linejoin:round;stroke-miterlimit:4;stroke-dasharray:none;stroke-dashoffset:0;stroke-opacity:1;paint-order:normal"
       d="m 484.04839,-481.16503 11.0356,-14.70444"
       id="path423"
       inkscape:connector-curvature="0"
       inkscape:export-xdpi="96"
       inkscape:export-ydpi="96" />
    <path
       style="opacity:1;fill:none;fill-opacity:1;fill-rule:nonzero;stroke:#8b4513;stroke-width:1.82642698;stroke-linecap:round;stroke-linejoin:round;stroke-miterlimit:4;stroke-dasharray:none;stroke-dashoffset:0;stroke-opacity:1;paint-order:normal"
       d="m 643.11499,-473.84896 -6.4987,16.28436"
       id="path425"
       inkscape:connector-curvature="0"
       inkscape:export-xdpi="96"
       inkscape:export-ydpi="96" />
    <path
       style="opacity:1;fill:none;fill-opacity:1;fill-rule:nonzero;stroke:#8b4513;stroke-width:1.82642698;stroke-linecap:round;stroke-linejoin:round;stroke-miterlimit:4;stroke-dasharray:none;stroke-dashoffset:0;stroke-opacity:1;paint-order:normal"
       d="m 700.91439,-601.61783 c 0,0 0.3242,-4.18754 4.2337,-4.18754 3.9095,0 7.0787,4.69919 7.0787,10.49609 0,5.79681 -3.1692,10.4961 -7.0787,10.4961 -3.9095,0 -5.7181,-6.53777 -5.7181,-6.53777"
       id="path443"
       inkscape:connector-curvature="0"
       sodipodi:nodetypes="ccscc"
       inkscape:export-xdpi="96"
       inkscape:export-ydpi="96" />
    <path
       style="display:inline;opacity:1;fill:none;fill-opacity:1;fill-rule:nonzero;stroke:#8b4513;stroke-width:1.8263123;stroke-linecap:round;stroke-linejoin:round;stroke-miterlimit:4;stroke-dasharray:none;stroke-dashoffset:0;stroke-opacity:1"
       d="m 446.01509,-585.81413 c 24.1267,45.29337 95.0348,80.06404 126.7238,80.06404 32.0686,0 103.739,-34.56351 127.5808,-80.74792"
       id="path445"
       inkscape:connector-curvature="0"
       sodipodi:nodetypes="csc"
       inkscape:export-xdpi="96"
       inkscape:export-ydpi="96" />
    <path
       style="display:inline;opacity:1;fill:none;fill-opacity:1;fill-rule:nonzero;stroke:#8b4513;stroke-width:1.82642698;stroke-linecap:round;stroke-linejoin:round;stroke-miterlimit:4;stroke-dasharray:none;stroke-dashoffset:0;stroke-opacity:1;paint-order:normal"
       d="m 703.55939,-593.34937 c -1.7187,-0.44866 -2.1239,-1.65899 -1.6752,-3.37769 0.4486,-1.71859 2.2055,-2.74819 3.9241,-2.29952"
       id="path449"
       inkscape:connector-curvature="0"
       sodipodi:nodetypes="csc"
       inkscape:export-xdpi="96"
       inkscape:export-ydpi="96" />
    <path
       style="display:inline;opacity:1;fill:none;fill-opacity:1;fill-rule:nonzero;stroke:#8b4513;stroke-width:1.82642698;stroke-linecap:round;stroke-linejoin:round;stroke-miterlimit:4;stroke-dasharray:none;stroke-dashoffset:0;stroke-opacity:1"
       d="m 602.20289,-389.52274 c 2.6615,9.16551 -15.7809,38.55371 -4.3905,42.64649 10.6703,3.83403 24.9934,-43.58402 23.8958,-47.05979"
       id="path451"
       inkscape:connector-curvature="0"
       sodipodi:nodetypes="csc"
       inkscape:export-xdpi="96"
       inkscape:export-ydpi="96" />
    <path
       style="display:inline;opacity:1;fill:none;fill-opacity:1;fill-rule:nonzero;stroke:#8b4513;stroke-width:1.41758263;stroke-linecap:round;stroke-linejoin:round;stroke-miterlimit:4;stroke-dasharray:none;stroke-dashoffset:0;stroke-opacity:1;paint-order:normal"
       d="m 568.76659,-677.12356 c -14.3096,45.8744 -96.9497,98.83634 -144.7797,90.43939 37.5518,-8.10301 69.4263,-23.53893 82.5667,-63.17319"
       id="path455"
       inkscape:connector-curvature="0"
       sodipodi:nodetypes="ccc"
       inkscape:export-xdpi="96"
       inkscape:export-ydpi="96" />
    <path
       style="opacity:1;fill:none;fill-opacity:1;fill-rule:nonzero;stroke:#8b4513;stroke-width:1.41758263;stroke-linecap:round;stroke-linejoin:round;stroke-miterlimit:4;stroke-dasharray:none;stroke-dashoffset:0;stroke-opacity:1;paint-order:normal"
       d="m 511.93009,-613.37438 c 49.1492,1.82784 66.9078,-47.55836 84.1027,-76.03818"
       id="path457"
       inkscape:connector-curvature="0"
       sodipodi:nodetypes="cc"
       inkscape:export-xdpi="96"
       inkscape:export-ydpi="96" />
    <path
       style="opacity:1;fill:none;fill-opacity:1;fill-rule:nonzero;stroke:#8b4513;stroke-width:1.41758263;stroke-linecap:round;stroke-linejoin:round;stroke-miterlimit:4;stroke-dasharray:none;stroke-dashoffset:0;stroke-opacity:1;paint-order:normal"
       d="m 451.41219,-577.07379 c 3.4077,11.32404 10.1932,21.38135 16.3542,31.67291 -1.5117,-1.88966 -16.8639,-19.46528 -28.9154,-39.97214 m -2.8513,-4.34477 c -6.6302,-11.28205 -10.3569,-20.90531 -10.8607,-29.41701 -2.2276,-37.63719 3.5492,-62.49308 29.5704,-85.25496 28.6887,-25.09517 94.5896,-34.76109 132.4907,-30.72245 17.441,1.85841 31.3409,3.74933 48.0833,8.27958 m 7.264,2.17239 c 33.8825,9.16811 59.7438,23.82098 70.6149,50.99294 16.6162,41.53175 -4.8724,57.97521 -1.4429,74.51009"
       id="path459"
       inkscape:connector-curvature="0"
       sodipodi:nodetypes="ccccsssccsc"
       inkscape:export-xdpi="96"
       inkscape:export-ydpi="96" />
    <path
       style="opacity:1;fill:none;fill-opacity:1;fill-rule:nonzero;stroke:#8b4513;stroke-width:1.41758263;stroke-linecap:round;stroke-linejoin:round;stroke-miterlimit:4;stroke-dasharray:none;stroke-dashoffset:0;stroke-opacity:1;paint-order:normal"
       d="m 634.63329,-722.6147 c 2.6088,-9.56694 9.7537,-17.4328 16.2931,-25.52584 -4.3835,9.48634 -10.4288,18.72392 -8.1466,27.69823"
       id="path461"
       inkscape:connector-curvature="0"
       sodipodi:nodetypes="ccc"
       inkscape:export-xdpi="96"
       inkscape:export-ydpi="96" />
    <path
       style="opacity:1;fill:none;fill-opacity:1;fill-rule:nonzero;stroke:#8b4513;stroke-width:1.41758263;stroke-linecap:round;stroke-linejoin:round;stroke-miterlimit:4;stroke-dasharray:none;stroke-dashoffset:0;stroke-opacity:1;paint-order:normal"
       d="m 555.06889,-627.30031 c 31.1074,-16.95327 57.1736,-50.11033 97.4867,-37.47406"
       id="path463"
       inkscape:connector-curvature="0"
       sodipodi:nodetypes="cc"
       inkscape:export-xdpi="96"
       inkscape:export-ydpi="96" />
    <path
       style="opacity:1;fill:none;fill-opacity:1;fill-rule:nonzero;stroke:#8b4513;stroke-width:1.41758263;stroke-linecap:round;stroke-linejoin:round;stroke-miterlimit:4;stroke-dasharray:none;stroke-dashoffset:0;stroke-opacity:1;paint-order:normal"
       d="m 648.48239,-675.09331 c 7.3672,21.35629 34.9719,47.63373 52.1707,71.25878"
       id="path465"
       inkscape:connector-curvature="0"
       sodipodi:nodetypes="cc"
       inkscape:export-xdpi="96"
       inkscape:export-ydpi="96" />
    <path
       style="opacity:1;fill:none;fill-opacity:1;fill-rule:nonzero;stroke:#8b4513;stroke-width:1.41758263;stroke-linecap:round;stroke-linejoin:round;stroke-miterlimit:4;stroke-dasharray:none;stroke-dashoffset:0;stroke-opacity:1;paint-order:normal"
       d="m 688.94349,-667.21836 c -6.1068,15.35214 7.6306,44.39015 11.9482,62.9998"
       id="path467"
       inkscape:connector-curvature="0"
       sodipodi:nodetypes="cc"
       inkscape:export-xdpi="96"
       inkscape:export-ydpi="96" />
    <path
       style="opacity:1;fill:none;fill-opacity:1;fill-rule:nonzero;stroke:#8b4513;stroke-width:1.41758263;stroke-linecap:round;stroke-linejoin:round;stroke-miterlimit:4;stroke-dasharray:none;stroke-dashoffset:0;stroke-opacity:1;paint-order:normal"
       d="m 704.15039,-645.2227 c -4.2793,7.09267 -3.6125,23.4592 -2.1724,41.27574"
       id="path469"
       inkscape:connector-curvature="0"
       sodipodi:nodetypes="cc"
       inkscape:export-xdpi="96"
       inkscape:export-ydpi="96" />
    <path
       style="opacity:1;fill:none;fill-opacity:1;fill-rule:nonzero;stroke:#8b4513;stroke-width:1.41731465;stroke-linecap:round;stroke-linejoin:round;stroke-miterlimit:4;stroke-dasharray:none;stroke-dashoffset:0;stroke-opacity:1;paint-order:normal"
       d="m 700.68139,-585.72415 6.3365,19.29759 c 0.9525,-7.01149 0.362,-13.16581 3.3602,-21.31371"
       id="path471"
       inkscape:connector-curvature="0"
       sodipodi:nodetypes="ccc"
       inkscape:export-xdpi="96"
       inkscape:export-ydpi="96" />
    <path
       inkscape:connector-curvature="0"
       style="display:inline;opacity:1;fill:#00ad00;fill-opacity:1;fill-rule:nonzero;stroke:none;stroke-width:1.58910632;stroke-linecap:round;stroke-linejoin:miter;stroke-miterlimit:4;stroke-dasharray:none;stroke-dashoffset:0;stroke-opacity:1;paint-order:normal"
       d="m 514.88133,-613.37834 c -1.4113,0.0576 -2.8768,0.10615 -4.4535,0.15658 0,0 -7.5879,4.97118 -15.875,9.74204 -0.3852,2.32254 -0.3894,4.68484 -0.106,6.84093 0.2802,2.34196 1.144,4.98788 2.5963,7.28949 0.8584,2.32997 3.1138,0.29069 9.0004,-0.46768 6.3942,-0.82378 9.0041,2.50058 10.2589,0.25114 2.058,-3.39751 2.7887,-7.60844 2.6293,-11.1838 -0.1091,-3.14574 -1.9961,-9.44608 -4.0504,-12.6287 z"
       id="path1435" />
    <path
       inkscape:connector-curvature="0"
       style="display:inline;opacity:1;fill:#8b4513;fill-opacity:1;fill-rule:nonzero;stroke:none;stroke-width:2.80450964;stroke-linecap:round;stroke-linejoin:miter;stroke-miterlimit:4;stroke-dasharray:none;stroke-dashoffset:0;stroke-opacity:1;paint-order:normal"
       d="m 518.54303,-613.57006 c -2.4809,0.16992 -5.1239,0.25263 -8.1152,0.3483 0,0 -0.3044,0.19722 -0.4403,0.28578 8.1031,1.09905 14.97479,6.54026 16.85629,18.14203 0.4921,-8.9703 -2.9881,-15.18042 -8.30079,-18.77611 z m -40.2921,18.11105 c -8e-4,2.4e-4 -0.195,0.0564 -0.1984,0.0574 -0.037,0.2014 -0.073,0.40362 -0.1065,0.6077 0.097,-0.22363 0.201,-0.44416 0.3049,-0.66506 z"
       id="path1437" />
    <path
       sodipodi:nodetypes="ccccsccccc"
       style="display:inline;opacity:1;fill:#00ad00;fill-opacity:1;fill-rule:nonzero;stroke:none;stroke-width:1.58910632;stroke-linecap:round;stroke-linejoin:miter;stroke-miterlimit:4;stroke-dasharray:none;stroke-dashoffset:0;stroke-opacity:1;paint-order:normal"
       d="m 645.69536,-615.41946 c -3.5316,0.12673 -4.6728,0.36297 -7.1298,1.22196 -2.1542,3.02756 -4.2008,9.74844 -4.3145,13.02893 -0.1595,3.57537 0.5708,7.78621 2.6289,11.18372 1.2548,2.24944 3.8648,-1.07493 10.2589,-0.25116 5.8867,0.75839 8.1419,2.79783 9.0004,0.46784 1.4522,-2.3016 2.3164,-4.94775 2.5965,-7.28972 0.6044,-4.59812 -0.077,-10.13446 -3.0452,-14.22166 -1.5384,-0.5477 -2.0699,-3.2622 -4.044,-3.61092 -1.2925,-0.17237 -4.5993,-0.52717 -5.9512,-0.52899 z"
       id="path1445"
       inkscape:connector-curvature="0" />
    <path
       sodipodi:nodetypes="cccccc"
       inkscape:connector-curvature="0"
       id="path1447"
       d="m 650.85596,-613.04507 c 14.842,-0.88387 18.2053,-2.35503 24.749,-6.19118 -2.0904,3.52018 -10.4065,7.94362 -14.4421,8.15703 6.3093,1.90538 15.7281,-4.89759 20.5753,-7.37827 -5.5037,5.06571 -7.1605,9.23339 -17.0835,11.41277 z"
       style="opacity:1;vector-effect:none;fill:#8b4513;fill-opacity:1;stroke:none;stroke-width:0.76409692;stroke-linecap:round;stroke-linejoin:round;stroke-miterlimit:4;stroke-dasharray:none;stroke-dashoffset:0;stroke-opacity:1;paint-order:normal" />
    <path
       style="display:inline;opacity:1;fill:#8b4513;fill-opacity:1;fill-rule:nonzero;stroke:none;stroke-width:2.80450964;stroke-linecap:round;stroke-linejoin:miter;stroke-miterlimit:4;stroke-dasharray:none;stroke-dashoffset:0;stroke-opacity:1;paint-order:normal"
       d="m 623.69916,-595.21259 c 4.6923,-28.93282 40.4121,-19.58234 48.8983,0 -4.7364,-29.03311 -50.6011,-31.03962 -48.8983,0 z"
       id="path1449"
       inkscape:connector-curvature="0"
       sodipodi:nodetypes="ccc" />
    <path
       inkscape:export-ydpi="96"
       inkscape:export-xdpi="96"
       inkscape:connector-curvature="0"
       id="path1557"
       d="m 524.22155,-564.45303 a 54.173802,36.572235 0 0 0 -0.11624,1.56292 54.173802,36.572235 0 0 0 54.17391,36.57216 54.173802,36.572235 0 0 0 54.17393,-36.57216 54.173802,36.572235 0 0 0 -0.0822,-1.56292 z"
       style="display:inline;opacity:1;fill:#550000;fill-opacity:1;fill-rule:nonzero;stroke:none;stroke-width:0.78679937;stroke-linecap:round;stroke-linejoin:miter;stroke-miterlimit:4;stroke-dasharray:none;stroke-dashoffset:0;stroke-opacity:1;paint-order:normal" />
    <path
       inkscape:export-ydpi="96"
       inkscape:export-xdpi="96"
       sodipodi:nodetypes="ccccc"
       inkscape:connector-curvature="0"
       id="path1559"
       d="m 524.88926,-558.07199 c 34.96509,-1.45908 71.64197,-2.09733 106.60706,0.30506 1.38732,-3.71715 0.31624,-2.96887 0.7785,-6.68602 -35.93324,-3.02905 -72.0169,-3.35102 -108.3046,0 0.01,5.42789 -0.16052,1.70276 0.91904,6.38096 z"
       style="display:inline;opacity:1;fill:#fffafa;fill-opacity:1;fill-rule:nonzero;stroke:none;stroke-width:1.08837187;stroke-linecap:round;stroke-linejoin:miter;stroke-miterlimit:4;stroke-dasharray:none;stroke-dashoffset:0;stroke-opacity:1;paint-order:normal" />
    <path
       inkscape:export-ydpi="96"
       inkscape:export-xdpi="96"
       inkscape:connector-curvature="0"
       id="path1561"
       d="m 578.27913,-539.12053 a 42.608249,28.764436 0 0 0 -28.37318,7.35228 54.173802,36.572235 0 0 0 28.37318,5.4503 54.173802,36.572235 0 0 0 28.35989,-5.46543 42.608249,28.764436 0 0 0 -28.35989,-7.33715 z"
       clip-path="none"
       style="display:inline;opacity:1;fill:#f08080;fill-opacity:1;fill-rule:nonzero;stroke:none;stroke-width:0.61882579;stroke-linecap:round;stroke-linejoin:miter;stroke-miterlimit:4;stroke-dasharray:none;stroke-dashoffset:0;stroke-opacity:1;paint-order:normal" />
    <path
       sodipodi:nodetypes="cccccc"
       inkscape:export-ydpi="96"
       inkscape:export-xdpi="96"
       style="opacity:1;fill:none;fill-opacity:1;fill-rule:nonzero;stroke:#8b4513;stroke-width:1.63178396;stroke-linecap:round;stroke-linejoin:round;stroke-miterlimit:4;stroke-dasharray:none;stroke-dashoffset:0;stroke-opacity:1;paint-order:normal"
       d="m 524.22155,-564.45303 c -0.0552,0.52035 -0.094,1.04145 -0.11624,1.56292 7e-5,20.19829 24.25455,36.5722 54.17391,36.57216 29.91937,5e-5 54.17386,-16.37386 54.17393,-36.57216 -0.0109,-0.52131 -0.0383,-1.0424 -0.0822,-1.56292 -31.82748,-3.01596 -66.4369,-4.0448 -108.14941,0 z"
       id="path1563"
       inkscape:connector-curvature="0" />
    <path
       inkscape:export-ydpi="96"
       inkscape:export-xdpi="96"
       sodipodi:nodetypes="cc"
       inkscape:connector-curvature="0"
       id="path1565"
       d="m 525.51297,-558.10887 c 35.09444,-2.84478 71.46873,-2.68053 105.8539,0.14885"
       style="opacity:1;fill:none;fill-opacity:1;fill-rule:nonzero;stroke:#8b4513;stroke-width:1.63178396;stroke-linecap:round;stroke-linejoin:round;stroke-miterlimit:4;stroke-dasharray:none;stroke-dashoffset:0;stroke-opacity:1;paint-order:normal" />
    <path
       sodipodi:nodetypes="ccc"
       inkscape:export-ydpi="96"
       inkscape:export-xdpi="96"
       inkscape:connector-curvature="0"
       id="path1567"
       d="m 606.63902,-531.78338 c -7.79741,-4.71438 -17.89255,-7.32615 -28.35989,-7.33715 -10.47493,0.013 -20.57568,2.63035 -28.37318,7.35228"
       clip-path="none"
       style="display:inline;opacity:1;fill:none;fill-opacity:1;fill-rule:nonzero;stroke:#8b4513;stroke-width:1.63178396;stroke-linecap:round;stroke-linejoin:round;stroke-miterlimit:4;stroke-dasharray:none;stroke-dashoffset:0;stroke-opacity:1;paint-order:normal" />
  </g>
</svg>
